<?xml version="1.0" encoding="UTF-8" standalone="no"?>
<svg xmlns:rdf="http://www.w3.org/1999/02/22-rdf-syntax-ns#" xmlns="http://www.w3.org/2000/svg" height="11.8mm" width="47.1mm" version="1.1" xmlns:cc="http://creativecommons.org/ns#" xmlns:dc="http://purl.org/dc/elements/1.1/" viewBox="0 0 166.82737 41.798835">
 <g transform="translate(-19.6 -28.8)">
  <g transform="translate(-233 -409)">
   <path fill="#f00" d="m374 459c0-1.5-1.3-2.8-2.8-2.8s-2.8 1.3-2.8 2.8 1.3 2.8 2.8 2.8 2.8-1.3 2.8-2.8m8.6-0.2c-0.6 0-1.4-0.3-1.8-1-0.6-1-0.6-3.3-0.6-3.8 0-1 0.1-2.9 0.5-3.7 0.2-0.4 0.7-1.2 1.9-1.2 0.4 0 1.3 0.1 1.8 1 0.2 0.4 0.6 1.4 0.6 4 0 2.2-0.3 3.2-0.5 3.6-0.3 0.5-0.9 1.1-1.9 1.1zm6.4-4.9c0-5.6-3.2-7.9-6.5-7.9s-6.5 2.3-6.5 7.9 3.2 7.9 6.5 7.9 6.5-2.3 6.5-7.9zm10.3 5c0-0.2 0.1-0.4-0.4-0.4h-1.6v-7.6c0.6-0.7 1.4-1.4 2.3-1.4 0.3 0 0.8 0.1 1.1 0.2 0.1 0 0.2 0.1 0.3 0.1s0.2-0.3 0.2-0.3l0.9-2.5c0.3-0.7-0.9-1-1.7-1-1.5 0-2.5 0.8-3.5 2.1l-0.2 0.2-0.1-0.4c-0.1-0.7-0.4-1.5-1-1.5h-3.9c-0.4 0-0.4 0.3-0.4 0.4v1.9c0 0.4 0.3 0.4 0.4 0.4h1.4l0.1 0.2c0.3 1 0.2 2 0.2 2.3v6.6h-1.5c-0.4 0-0.4 0.3-0.4 0.4v1.9c0 0.4 0.3 0.4 0.4 0.4h6.9c0.5 0 0.4-0.2 0.4-0.4v-1.6zm15.8-7.8c0-1.5 0.4-2.7 0.7-3.3 0.1-0.4 0.2-0.4 0.2-0.5s-0.1-0.2-0.3-0.3l-2.3-0.9c-0.2-0.1-0.8-0.2-1.3 1.3l-0.1-0.1c-0.5-0.4-1.4-1.3-3.4-1.3-2.5 0-5.6 1.8-5.6 7.8 0 5.6 2.7 7.3 5.1 7.3 1.1 0 2.4-0.4 3.3-1l0.3-0.2v0.4l0.1 1.5c0.1 2.4-1.3 2.5-2.3 2.5-1.5 0-3.1-0.3-4.4-1-0.1-0.1-0.3-0.1-0.5-0.1s-0.3 0.2-0.3 0.3l-0.6 1.8c-0.1 0.2-0.1 0.3-0.1 0.4v0.2c0.1 0.3 0.7 0.5 0.9 0.6 0.8 0.3 2.6 1 5.3 1 1.5 0 3.2-0.2 4.4-1.6 0.4-0.5 0.8-1.1 1-1.8s0.3-1.3 0.3-2.1l-0.1-6.7v-4.2zm-3.6 6c-0.6 0.6-1.8 1-2.5 1-2.3 0-2.4-2.9-2.4-4.4 0-1.3 0-4.5 2.6-4.5 1.1 0 1.9 0.5 2.2 0.8l0.1 0.1v7z"/>
   <path fill="#0000d3" d="m307 459c0-0.7-0.4-0.6-0.6-0.6h-2v-14.4h2.2v2.9c0 0.3-0.1 0.5 0.5 0.5h1.8c0.1 0 0.5 0.1 0.5-0.5v-5.6c0-0.6-0.4-0.5-0.5-0.5h-12.9c-0.6 0-0.5 0.2-0.5 0.5v5.6c0 0.3-0.1 0.5 0.5 0.5h1.8c0.1 0 0.5 0.1 0.5-0.5v-2.9h2.2v14.3h-2c-0.2 0-0.6-0.1-0.6 0.6v1.6c0 0.7 0.4 0.6 0.6 0.6h7.9c0.2 0 0.6 0.1 0.6-0.6v-1.5zm12.1-0.2c0-0.2 0.1-0.4-0.4-0.4h-1.6v-7.6c0.6-0.7 1.4-1.4 2.3-1.4 0.3 0 0.8 0.1 1.1 0.2 0.1 0 0.2 0.1 0.3 0.1s0.2-0.3 0.2-0.3l0.9-2.5c0.3-0.7-0.9-1-1.7-1-1.5 0-2.5 0.8-3.5 2.1l-0.2 0.2-0.1-0.4c-0.1-0.7-0.4-1.5-1-1.5h-3.9c-0.4 0-0.4 0.3-0.4 0.4v1.9c0 0.4 0.3 0.4 0.4 0.4h1.4l0.1 0.2c0.3 1 0.2 2 0.2 2.3v6.6h-1.5c-0.4 0-0.4 0.3-0.4 0.4v1.9c0 0.4 0.3 0.4 0.4 0.4h6.9c0.5 0 0.4-0.2 0.4-0.4v-1.6zm17.4 0c0-0.1 0-0.4-0.4-0.4h-1.3v-0.1c-0.1-0.6-0.3-0.9-0.3-2.4v-5.1c0-1.9-0.5-4.8-4.8-4.8-2.5 0-4.3 0.6-4.9 0.8-0.9 0.3-0.7 0.7-0.6 1l0.6 1.8c0 0.1 0.1 0.3 0.3 0.3s0.4-0.1 0.9-0.3c0.6-0.2 1.8-0.6 3-0.6 1.9 0 1.9 1.4 1.9 2.2v0.9h-0.4c-4.5 0-7.3 1.3-7.3 5 0 3.3 2.3 4.6 4.5 4.6 1.9 0 2.9-0.9 3.7-1.7l0.1-0.1v0.2c0.1 0.6 0.3 1.1 0.9 1.1h3.7c0.5 0 0.4-0.2 0.4-0.4v-2zm-5.5-1c-0.7 0.7-1.3 1.1-2.2 1.1-1.2 0-2-0.8-2-2 0-1 0.5-1.5 1.1-1.9 0.9-0.5 2.1-0.5 2.9-0.5h0.2v3.3zm17 0.4s-0.1-0.1-0.2-0.1-0.2 0.1-0.4 0.1c-0.4 0.1-1.2 0.5-2.2 0.5-3.1 0-3.1-3.2-3.1-4.8 0-3.8 1.2-5 2.9-5 0.3 0 0.5 0 0.8 0.1v2.2c0 0.4 0.3 0.4 0.4 0.4h2.1c0.1 0 0.4 0 0.4-0.4v-4c0-0.9-2.4-1.3-3.7-1.3-2.7 0-7 1.4-7 8.1 0 1.9 0.3 7.6 6.6 7.6 1.7 0 4.2-0.6 4.2-1.2 0-0.1-0.1-0.2-0.1-0.3l-0.7-1.9zm18.2 0.6c0-0.2 0.1-0.4-0.4-0.4h-1.5l-4.6-5.6 4.2-3.6h1.5c0.5 0 0.4-0.2 0.4-0.4v-1.9c0-0.2 0.1-0.4-0.4-0.4h-6.6c-0.1 0-0.4 0-0.4 0.4v1.9c0 0.4 0.3 0.4 0.4 0.4h1.2l-3.7 3.1v-12.1c0-0.2 0.1-0.4-0.4-0.4h-4.8c-0.1 0-0.4 0-0.4 0.4v1.9c0 0.4 0.3 0.4 0.4 0.4h1.5v15.8h-1.5c-0.4 0-0.4 0.3-0.4 0.4v1.9c0 0.4 0.3 0.4 0.4 0.4h6.8c0.5 0 0.4-0.2 0.4-0.4v-1.9c0-0.2 0.1-0.4-0.4-0.4h-1.5v-4.5l5.2 7c0.3 0.4 0.3 0.3 0.6 0.3h3.7c0.5 0 0.4-0.2 0.4-0.4v-1.9z"/>
   <path fill="#f00" d="m264 459c0-0.7-0.4-0.6-0.6-0.6h-2v-5.4h1.6c4.1 0 6.8-2.6 6.8-6.6 0-5.7-4.6-5.6-6.9-5.6h-7c-0.2 0-0.6-0.1-0.6 0.6v1.6c0 0.7 0.4 0.6 0.6 0.6h1.5v14.7h-1.5c-0.2 0-0.6-0.1-0.6 0.6v1.6c0 0.7 0.4 0.6 0.6 0.6h7.5c0.2 0 0.6 0.1 0.6-0.6v-1.5zm-2.6-9.1v-6h1.2c1.5 0 3.1 0.1 3.1 2.7 0 3.1-1.8 3.3-3.4 3.3h-0.9zm15.8 8.8c-0.6 0-1.4-0.3-1.8-1-0.6-1-0.6-3.3-0.6-3.8 0-1 0.1-2.9 0.5-3.7 0.2-0.4 0.7-1.2 1.9-1.2 0.4 0 1.3 0.1 1.8 1 0.2 0.4 0.6 1.4 0.6 4 0 2.2-0.3 3.2-0.5 3.6-0.2 0.5-0.8 1.1-1.9 1.1zm6.5-4.9c0-5.6-3.2-7.9-6.5-7.9s-6.5 2.3-6.5 7.9 3.2 7.9 6.5 7.9 6.5-2.3 6.5-7.9zm9 4.4c-0.1-0.3-0.4-0.1-0.5-0.1-0.2 0.1-0.7 0.2-0.9 0.2-0.9 0-0.8-1-0.8-1.8v-16.2c0-0.2 0.1-0.4-0.4-0.4h-4.8c-0.1 0-0.4 0-0.4 0.4v1.9c0 0.4 0.3 0.4 0.4 0.4h1.5v13.4c0 2.9 0 5.7 3.7 5.7 0.7 0 2.9-0.2 2.9-0.8v-0.2l-0.7-2.5z"/>
   <text font-size="11.2px" font-weight="bold" transform="matrix(1 0 -.142 1 0 0)" line-height="125%" y="476.06152" x="321.79263" font-family="Calibri" fill="#b0b1b2">
    <tspan x="321.79263" y="476.06152">Non-partisan * Member-supported</tspan>
   </text>
  </g>
 </g>
</svg>
